<?xml version="1.0" encoding="UTF-8" standalone="no"?>
<!DOCTYPE svg  PUBLIC '-//W3C//DTD SVG 1.1//EN'  'http://www.w3.org/Graphics/SVG/1.1/DTD/svg11.dtd'>
<svg version="1.1" xmlns="http://www.w3.org/2000/svg">
<defs>
<font id="RNSSanz-Normal" horiz-adv-x="570">
<font-face underline-position="-150" bbox="-374 -209 974 909" unicode-range="U+0020-0327" font-weight="400" x-height="472" panose-1="0 0 5 0 0 0 0 0 0 0" font-family="z" descent="-200" units-per-em="1000" ascent="800" underline-thickness="50" cap-height="690"/>
<missing-glyph/>
<glyph unicode=" " glyph-name="space" horiz-adv-x="229"/>
<glyph d="M99 690h76l-17 -505h-42zM99 2.5q-13 13.5 -13 38.5t13 38t38 13t38 -13t13 -38t-13 -38.5t-38 -13.5t-38 13.5z" unicode="!" glyph-name="exclam" horiz-adv-x="274"/>
<glyph d="M71 679h76l-18 -194h-40zM239 679h76l-17 -194h-41z" unicode='&quot;' glyph-name="quotedbl" horiz-adv-x="387"/>
<glyph d="M474 440l-33 -208h132l6 -52h-146l-29 -180h-46l29 180h-184l-29 -180h-46l29 180h-113v52h121l33 208h-129l-6 52h143l32 198h46l-32 -198h184l32 198h46l-32 -198h116v-52h-124zM428 440h-184l-33 -208h184z" unicode="#" glyph-name="numbersign" horiz-adv-x="643"/>
<glyph d="M431.5 56.5q-46.5 -49.5 -126.5 -63.5l6 -88h-69l5 84q-46 1 -94.5 12.5t-86.5 32.5l22 59q74 -44 159 -44q70 0 116.5 33t46.5 92q0 40 -19.5 67t-45 42.5t-82.5 45.5q-58 29 -93 52t-59.5 60t-24.5 89q0 69 43.5 113.5t117.5 54.5l-5 82h69l-5 -80q39 -2 77.5 -11 t61.5 -24l-14 -59q-31 17 -69 26t-71 9q-63 0 -100 -29t-37 -81q0 -36 19.5 -62.5t47 -44.5t79.5 -45q58 -29 93.5 -52t60 -60t24.5 -89q0 -72 -46.5 -121.5z" unicode="$" glyph-name="dollar" horiz-adv-x="548"/>
<glyph d="M101 379q-39 48 -39 137t39 137t111 48t110.5 -48t38.5 -137t-38.5 -137t-110.5 -48t-111 48zM600 690h50l-398 -690h-50zM285 411q25 37 25 105t-25.5 105t-73.5 37q-47 0 -72.5 -37t-25.5 -105t26 -105t74 -37q47 0 72 37zM529.5 37q-38.5 48 -38.5 137t38.5 137 t111.5 48q72 0 110.5 -48t38.5 -137t-38.5 -137t-110.5 -48q-73 0 -111.5 48zM714 69q25 37 25 105t-25.5 105t-73.5 37q-47 0 -72.5 -37t-25.5 -105t26 -105t74 -37q47 0 72 37z" unicode="%" glyph-name="percent" horiz-adv-x="853"/>
<glyph d="M483 106q-91 -117 -229 -117q-95 0 -151 49t-56 134q0 140 165 215q-37 42 -55 81t-18 81q0 69 46.5 110.5t128.5 41.5q87 0 163 -45l-12 -59q-80 50 -150 50q-52 0 -82 -27t-30 -72q0 -34 19 -71.5t54 -73.5l202 -206q42 84 59 207h58q-12 -76 -32 -140t-46 -109 l150 -155h-78zM146 278q-36 -43 -36 -100q0 -62 40.5 -99t111.5 -37q116 0 186 103l-198 203q-68 -27 -104 -70z" unicode="&amp;" glyph-name="ampersand" horiz-adv-x="679"/>
<glyph d="M71 679h76l-18 -194h-40z" unicode="&apos;" glyph-name="quotesingle" horiz-adv-x="219"/>
<glyph d="M134.5 70q-63.5 108 -63.5 239q0 130 63.5 237.5t178.5 171.5l27 -39q-98 -62 -151 -158.5t-53 -211.5q0 -116 53.5 -213t150.5 -159l-27 -39q-115 64 -178.5 172z" unicode="(" glyph-name="parenleft" horiz-adv-x="381"/>
<glyph d="M41 -63q97 62 150.5 159t53.5 213q0 115 -53 211.5t-151 158.5l27 39q115 -64 178.5 -171.5t63.5 -237.5q0 -131 -63.5 -239t-178.5 -172z" unicode=")" glyph-name="parenright" horiz-adv-x="381"/>
<glyph d="M85 440l77 103l-124 38l13 42l124 -43l-4 131h44l-4 -131l123 43l14 -41l-123 -38l78 -103l-35 -25l-74 105l-75 -106z" unicode="*" glyph-name="asterisk" horiz-adv-x="387"/>
<glyph d="M510 260h-198v-200h-53v200h-200v50h200v191h53v-191h198v-50z" unicode="+" glyph-name="plus"/>
<glyph d="M38 -116l45 205h82l-92 -215z" unicode="," glyph-name="comma" horiz-adv-x="217"/>
<glyph d="M62 327h245v-57h-245v57z" unicode="-" glyph-name="hyphen" horiz-adv-x="369"/>
<glyph d="M79 2.5q-13 13.5 -13 38.5t13 38t38 13t38 -13t13 -38t-13 -38.5t-38 -13.5t-38 13.5z" unicode="." glyph-name="period" horiz-adv-x="235"/>
<glyph d="M437 690h64l-472 -816h-64z" unicode="/" glyph-name="slash" horiz-adv-x="515"/>
<glyph d="M133.5 80q-63.5 91 -63.5 260t63.5 260t181.5 91t182 -91t64 -260t-64 -260t-182 -91t-181.5 91zM450 122q47 76 47 218t-47 218t-135 76t-134.5 -76t-46.5 -218t46.5 -218t134.5 -76t135 76z" unicode="0" glyph-name="zero" horiz-adv-x="631"/>
<glyph d="M188 615l-148 -64l-7 54l162 76h57v-681h-64v615z" unicode="1" glyph-name="one" horiz-adv-x="384"/>
<glyph d="M62 42q154 129 241 254t87 222q0 56 -33.5 86t-93.5 30q-43 0 -89 -19t-90 -54l-12 55q47 36 98.5 55.5t98.5 19.5q89 0 137 -44.5t48 -126.5q0 -100 -77.5 -220.5t-217.5 -244.5h321v-55h-405z" unicode="2" glyph-name="two" horiz-adv-x="546"/>
<glyph d="M47 39l11 61q39 -26 84.5 -40t90.5 -14q81 0 125 35.5t44 101.5q0 68 -52.5 106.5t-142.5 38.5h-30l-10 53h42q85 0 131.5 36t46.5 99q0 57 -34 87.5t-97 30.5q-49 0 -97.5 -16t-89.5 -47l-7 60q45 29 96 44.5t101 15.5q92 0 142.5 -44.5t50.5 -126.5q0 -56 -33.5 -99.5 t-95.5 -65.5q69 -17 106 -62t37 -112q0 -92 -59.5 -142t-170.5 -50q-95 0 -189 50z" unicode="3" glyph-name="three" horiz-adv-x="533"/>
<glyph d="M386 158h-351v47l334 476h80v-470h103v-53h-103v-158h-63v158zM385 211v399l-279 -399h279z" unicode="4" glyph-name="four" horiz-adv-x="594"/>
<glyph d="M56 30l11 58q38 -20 83 -30.5t89 -10.5q86 0 132 41.5t46 118.5q0 71 -40 109t-117 38q-35 0 -72 -8t-67 -21l-39 7l24 349h345v-56h-290l-15 -235q51 19 119 19q105 0 160 -52.5t55 -149.5q0 -104 -62 -160.5t-172 -56.5q-92 0 -190 40z" unicode="5" glyph-name="five" horiz-adv-x="542"/>
<glyph d="M126 64.5q-61 75.5 -61 214.5q0 150 90.5 257.5t255.5 154.5l12 -61q-124 -31 -200.5 -106t-93.5 -182l4 -2q42 31 89 47.5t93 16.5q97 0 150 -52.5t53 -148.5q0 -102 -57 -158t-162 -56q-112 0 -173 75.5zM414.5 85.5q40.5 40.5 40.5 116.5q0 71 -38.5 109.5 t-109.5 38.5q-46 0 -93 -19.5t-88 -55.5q0 -110 45 -170t127 -60q76 0 116.5 40.5z" unicode="6" glyph-name="six"/>
<glyph d="M406 625h-350v56h422v-48l-280 -633h-68z" unicode="7" glyph-name="seven" horiz-adv-x="531"/>
<glyph d="M114.5 37q-62.5 48 -62.5 130q0 62 39.5 113t111.5 80q-117 53 -117 164q0 78 52.5 122.5t149.5 44.5q94 0 146 -43t52 -118q0 -55 -31 -99.5t-90 -74.5q71 -26 109 -74t38 -113q0 -84 -60 -132t-167 -48q-108 0 -170.5 48zM393.5 440q30.5 41 30.5 89q0 51 -35.5 79.5 t-100.5 28.5q-67 0 -103 -30.5t-36 -85.5q0 -56 40 -90t122 -56q52 24 82.5 65zM404 77q43 33 43 94t-46.5 97.5t-144.5 66.5q-67 -27 -104 -69t-37 -95q0 -59 45 -93t124 -34q77 0 120 33z" unicode="8" glyph-name="eight" horiz-adv-x="564"/>
<glyph d="M140 50q129 31 208 102t97 173l-3 2q-43 -31 -90 -47.5t-93 -16.5q-97 0 -150 54.5t-53 155.5q0 105 59 161.5t169 56.5q109 0 167 -76.5t58 -217.5q0 -153 -93.5 -259t-261.5 -149zM360.5 336q46.5 19 87.5 55q0 118 -42.5 181.5t-120.5 63.5q-80 0 -123 -42t-43 -120 q0 -76 38.5 -116.5t109.5 -40.5q47 0 93.5 19z" unicode="9" glyph-name="nine"/>
<glyph d="M84 393q-13 13 -13 38t13 38t38 13t38 -13t13 -38t-13 -38t-38 -13t-38 13zM84 2.5q-13 13.5 -13 38.5t13 38t38 13t38 -13t13 -38t-13 -38.5t-38 -13.5t-38 13.5z" unicode=":" glyph-name="colon" horiz-adv-x="245"/>
<glyph d="M84 393q-13 13 -13 38t13 38t38 13t38 -13t13 -38t-13 -38t-38 -13t-38 13zM37 -116l45 205h82l-92 -215z" unicode=";" glyph-name="semicolon" horiz-adv-x="245"/>
<glyph d="M59 266v49l451 241v-61l-394 -204l394 -206v-59z" unicode="&lt;" glyph-name="less"/>
<glyph d="M59 411h451v-50h-451v50zM59 218h451v-50h-451v50z" unicode="=" glyph-name="equal"/>
<glyph d="M59 86l394 205l-394 206v59l451 -241v-49l-451 -240v60z" unicode="&gt;" glyph-name="greater"/>
<glyph d="M197 347q87 42 129 84.5t42 98.5q0 54 -35 84t-98 30q-47 0 -95 -16.5t-84 -46.5l-9 58q85 62 194 62q87 0 139 -41.5t52 -124.5q0 -74 -44.5 -121t-141.5 -95l-5 -135h-39zM186 2.5q-13 13.5 -13 38.5t13 38t38 13t38 -13t13 -38t-13 -38.5t-38 -13.5t-38 13.5z" unicode="?" glyph-name="question" horiz-adv-x="492"/>
<glyph d="M143.5 -42q-86.5 84 -86.5 253q0 130 50 226.5t145 149t227 52.5q155 0 238 -79t83 -235q0 -120 -47.5 -189t-133.5 -69q-50 0 -79 24.5t-34 68.5q-40 -48 -75 -70t-70 -22q-45 0 -70 36.5t-25 107.5q0 109 55.5 175t152.5 66q55 0 119 -28l-32 -209q-4 -9 -4 -36 q0 -75 70 -75q65 0 100.5 58t35.5 159q0 143 -72.5 214t-213.5 71q-120 0 -206 -49t-131.5 -138t-45.5 -209q0 -305 307 -305q60 0 112.5 10.5t90.5 29.5l11 -24q-41 -23 -98.5 -35.5t-122.5 -12.5q-164 0 -250.5 84zM510 214l28 181q-34 14 -68 14q-71 0 -111.5 -53 t-40.5 -140q0 -103 59 -103q54 0 133 101z" unicode="@" glyph-name="at" horiz-adv-x="858"/>
<glyph d="M488 206h-319l-77 -206h-68l260 690h90l259 -690h-69zM468 261l-136 369h-6l-137 -369h279z" unicode="A" glyph-name="A" horiz-adv-x="657"/>
<glyph d="M124 690h220q90 0 139.5 -45t49.5 -127q0 -58 -29.5 -100.5t-82.5 -63.5q66 -15 101.5 -60t35.5 -115q0 -86 -56 -132.5t-159 -46.5h-219v690zM323 375q70 0 108 34t38 98q0 60 -33.5 93t-94.5 33h-151v-258h133zM341 58q72 0 111.5 32.5t39.5 93.5q0 67 -44 103t-125 36 h-133v-265h151z" unicode="B" glyph-name="B" horiz-adv-x="626"/>
<glyph d="M156 82q-80 93 -80 264t80 263t227 92q63 0 116.5 -17t91.5 -47l-28 -47q-83 50 -179 50q-115 0 -177.5 -77t-62.5 -219t62.5 -218t182.5 -76q103 0 194 61l26 -48q-45 -36 -103.5 -55t-123.5 -19q-146 0 -226 93z" unicode="C" glyph-name="C" horiz-adv-x="657"/>
<glyph d="M124 690h223q156 0 240.5 -89.5t84.5 -254.5q0 -166 -84.5 -256t-240.5 -90h-223v690zM345 58q124 0 191.5 75t67.5 213q0 137 -67.5 212t-191.5 75h-155v-575h155z" unicode="D" glyph-name="D" horiz-adv-x="749"/>
<glyph d="M513 58v-58h-389v690h380v-57h-314v-255h274v-58h-274v-262h323z" unicode="E" glyph-name="E" horiz-adv-x="601"/>
<glyph d="M190 633v-266h271v-58h-271v-309h-66v690h370v-57h-304z" unicode="F" glyph-name="F" horiz-adv-x="568"/>
<glyph d="M156 82q-80 93 -80 264t80 263t227 92q63 0 116.5 -17t91.5 -47l-27 -47q-83 50 -180 50q-115 0 -177.5 -77t-62.5 -219t63 -218t182 -76q48 0 96.5 14.5t84.5 38.5v269h64v-300q-118 -83 -252 -83q-146 0 -226 93z" unicode="G" glyph-name="G" horiz-adv-x="749"/>
<glyph d="M124 690h66v-312h388v312h66v-690h-66v321h-388v-321h-66v690z" unicode="H" glyph-name="H" horiz-adv-x="769"/>
<glyph d="M124 690h66v-690h-66v690z" unicode="I" glyph-name="I" horiz-adv-x="315"/>
<glyph d="M23 -2l-8 62q34 -10 73 -10q57 0 80.5 31t23.5 99v510h66v-510q0 -95 -41 -143t-127 -48q-32 0 -67 9z" unicode="J" glyph-name="J" horiz-adv-x="374"/>
<glyph d="M609 0h-85l-328 338h-6v-338h-66v690h66v-313h6l304 313h86l-323 -329z" unicode="K" glyph-name="K" horiz-adv-x="648"/>
<glyph d="M124 690h66v-632h296v-58h-362v690z" unicode="L" glyph-name="L" horiz-adv-x="517"/>
<glyph d="M132 690h92l234 -584h6l238 584h91l19 -690h-65l-16 596h-5l-234 -571h-64l-232 571h-6l-18 -596h-63z" unicode="M" glyph-name="M" horiz-adv-x="921"/>
<glyph d="M124 690h84l365 -594h5v594h66v-690h-82l-366 596h-6v-596h-66v690z" unicode="N" glyph-name="N" horiz-adv-x="769"/>
<glyph d="M157 82q-81 93 -81 265q0 170 81 262t230 92q156 0 240.5 -92t84.5 -262q0 -172 -84.5 -265t-240.5 -93q-149 0 -230 93zM578 127.5q67 77.5 67 219.5q0 141 -67 217t-190 76q-117 0 -180 -76t-63 -217q0 -142 63 -219.5t180 -77.5q123 0 190 77.5z" unicode="O" glyph-name="O" horiz-adv-x="789"/>
<glyph d="M124 690h219q100 0 157 -55.5t57 -152.5q0 -98 -57 -154t-157 -56h-153v-272h-66v690zM342 329q68 0 107 40.5t39 111.5t-39 111.5t-107 40.5h-152v-304h152z" unicode="P" glyph-name="P" horiz-adv-x="615"/>
<glyph d="M661 127.5q-51 -86.5 -148 -119.5l150 -55l-12 -63l-222 101q-26 -2 -42 -2q-149 0 -230 93t-81 265q0 170 81 262t230 92q156 0 240.5 -92t84.5 -262q0 -133 -51 -219.5zM208.5 127.5q63.5 -77.5 179.5 -77.5q123 0 190 77.5t67 219.5q0 141 -67 217t-190 76 q-116 0 -179.5 -76t-63.5 -217q0 -142 63.5 -219.5z" unicode="Q" glyph-name="Q" horiz-adv-x="789"/>
<glyph d="M514 0l-166 273h-5h-153v-273h-66v690h219q100 0 157 -55.5t57 -152.5q0 -79 -38 -131.5t-107 -69.5l173 -281h-71zM190 331h152q68 0 107 40t39 111t-39 111t-107 40h-152v-302z" unicode="R" glyph-name="R" horiz-adv-x="632"/>
<glyph d="M154.5 1q-49.5 12 -88.5 33l22 59q74 -44 159 -44q70 0 116.5 33t46.5 92q0 40 -19.5 67t-45 42.5t-82.5 45.5q-58 29 -93 52t-59.5 60t-24.5 89q0 78 55 124.5t146 46.5q43 0 87 -10t71 -26l-14 -59q-31 17 -69 26t-71 9q-63 0 -100 -29t-37 -81q0 -36 19.5 -62.5 t47 -44.5t79.5 -45q58 -29 93.5 -52t60 -60t24.5 -89q0 -55 -28 -98t-79.5 -67t-118.5 -24q-48 0 -97.5 12z" unicode="S" glyph-name="S" horiz-adv-x="548"/>
<glyph d="M254 633h-224v57h514v-57h-224v-633h-66v633z" unicode="T" glyph-name="T" horiz-adv-x="574"/>
<glyph d="M181.5 60q-66.5 71 -66.5 202v428h66v-429q0 -101 49.5 -156t140.5 -55t140 55t49 156v429h66v-428q0 -131 -66.5 -202t-188.5 -71q-123 0 -189.5 71z" unicode="U" glyph-name="U" horiz-adv-x="741"/>
<glyph d="M24 690h71l230 -624h5l229 624h68l-259 -690h-85z" unicode="V" glyph-name="V" horiz-adv-x="651"/>
<glyph d="M24 690h72l171 -617h6l193 617h85l181 -617h5l170 617h67l-201 -690h-82l-184 616h-5l-195 -616h-82z" unicode="W" glyph-name="W" horiz-adv-x="998"/>
<glyph d="M621 0h-77l-216 314h-4l-215 -314h-71l251 363l-228 327h78l188 -277h5l190 277h70l-226 -326z" unicode="X" glyph-name="X" horiz-adv-x="659"/>
<glyph d="M270 290l-246 400h76l201 -335h5l203 335h72l-245 -400v-290h-66v290z" unicode="Y" glyph-name="Y" horiz-adv-x="605"/>
<glyph d="M555 58v-58h-487v61l405 572h-386v57h458v-60l-404 -572h414z" unicode="Z" glyph-name="Z" horiz-adv-x="613"/>
<glyph d="M101 690h240v-46h-182v-703h182v-47h-240v796z" unicode="[" glyph-name="bracketleft" horiz-adv-x="403"/>
<glyph d="M14 690h64l472 -816h-64z" unicode="\" glyph-name="backslash" horiz-adv-x="515"/>
<glyph d="M61 -59h182v703h-182v46h240v-796h-240v47z" unicode="]" glyph-name="bracketright" horiz-adv-x="403"/>
<glyph d="M208 690h41l180 -345h-60l-140 273l-140 -273h-61z" unicode="^" glyph-name="asciicircum" horiz-adv-x="457"/>
<glyph d="M4 -60h469v-45h-469v45z" unicode="_" glyph-name="underscore" horiz-adv-x="478"/>
<glyph d="M45 650l69 22l100 -151h-49z" unicode="`" glyph-name="grave" horiz-adv-x="600"/>
<glyph d="M368 446q41 -36 41 -96v-350h-48l-7 59q-35 -32 -81 -51t-88 -19q-60 0 -96.5 36.5t-36.5 94.5q0 84 77 129.5t220 45.5v-47q-113 0 -174 -32t-61 -91q0 -37 22.5 -60.5t62.5 -23.5q37 0 78 19t73 51v237q0 38 -25 59.5t-75 21.5q-74 0 -157 -43l-17 45q42 25 91.5 38 t91.5 13q68 0 109 -36z" unicode="a" glyph-name="a" horiz-adv-x="489"/>
<glyph d="M444 415q52 -67 52 -181q0 -115 -52.5 -180t-144.5 -65q-49 0 -89 18.5t-65 53.5l-8 -61h-47v730h59v-313q32 34 71 49.5t80 15.5q92 0 144 -67zM396.5 93q38.5 50 38.5 142q0 91 -38 142t-106 51q-42 0 -80 -19.5t-62 -55.5v-235q24 -36 61 -55.5t79 -19.5 q69 0 107.5 50z" unicode="b" glyph-name="b" horiz-adv-x="549"/>
<glyph d="M107.5 53.5q-55.5 64.5 -55.5 182.5t55.5 182t156.5 64q48 0 87 -14.5t64 -41.5l-11 -59q-25 30 -60.5 45.5t-76.5 15.5q-74 0 -114 -50t-40 -142q0 -93 40 -143t112 -50q44 0 82 18.5t67 52.5l12 -57q-29 -33 -70.5 -50.5t-92.5 -17.5q-100 0 -155.5 64.5z" unicode="c" glyph-name="c" horiz-adv-x="469"/>
<glyph d="M458 730v-730h-47l-8 61q-25 -35 -65 -53.5t-90 -18.5q-94 0 -145 64.5t-51 178.5q0 116 52 183t144 67q41 0 80 -15.5t71 -49.5v313h59zM338.5 62.5q36.5 19.5 60.5 55.5v235q-25 36 -62.5 55.5t-79.5 19.5q-67 0 -105 -51t-38 -140q0 -95 39.5 -144.5t107.5 -49.5 q41 0 77.5 19.5z" unicode="d" glyph-name="d" horiz-adv-x="549"/>
<glyph d="M107.5 53.5q-55.5 64.5 -55.5 181.5q0 118 55.5 182.5t152.5 64.5q182 0 182 -220v-26h-328q0 -95 40 -144t114 -49q46 0 85 18.5t69 52.5l9 -57q-30 -33 -72.5 -50.5t-95.5 -17.5q-100 0 -155.5 64.5zM381 284q0 69 -30 106.5t-89 37.5q-66 0 -101.5 -39t-43.5 -105h264 z" unicode="e" glyph-name="e" horiz-adv-x="495"/>
<glyph d="M163 472h97v-51h-97v-421h-59v421h-75l17 51h58v160q0 52 27.5 80.5t78.5 28.5q30 0 56 -14l6 -50q-29 11 -59 11q-24 0 -37 -15t-13 -42v-159z" unicode="f" glyph-name="f" horiz-adv-x="287"/>
<glyph d="M355.5 71.5q42.5 -13.5 71.5 -44t29 -82.5q0 -72 -55.5 -108.5t-164.5 -36.5q-107 0 -162.5 34t-55.5 101q0 58 38 92t94 44q-22 7 -34 20.5t-12 32.5q0 20 11 34.5t31 19.5q-41 19 -63.5 55.5t-22.5 87.5q0 75 47.5 118t129.5 43q79 0 127 -40l77 41l16 -52l-66 -20 q23 -38 23 -90q0 -75 -47 -118t-130 -43q-19 0 -28 1l-16 -1q-15 0 -24 -8t-9 -20q0 -15 21 -23t72 -15q60 -9 102.5 -22.5zM148 405q-31 -30 -31 -84q0 -53 32 -83.5t88 -30.5t88 30.5t32 83.5q0 54 -31 84t-89 30t-89 -30zM357.5 -127q41.5 24 41.5 70q0 45 -42.5 66.5 t-139.5 34.5q-68 -4 -106 -31.5t-38 -67.5q0 -46 43.5 -71t122.5 -25q77 0 118.5 24z" unicode="g" glyph-name="g" horiz-adv-x="494"/>
<glyph d="M416.5 446q37.5 -36 37.5 -98v-348h-59v336q0 42 -26.5 66.5t-69.5 24.5q-38 0 -77 -20.5t-73 -57.5v-349h-59v730h59v-320q35 34 78.5 53t88.5 19q63 0 100.5 -36z" unicode="h" glyph-name="h" horiz-adv-x="535"/>
<glyph d="M90 472h59v-472h-59v472zM87 546q-12 11 -12 33t12 33t34 11q45 0 45 -44t-45 -44q-22 0 -34 11z" unicode="i" glyph-name="i" horiz-adv-x="239"/>
<glyph d="M18 -195l-9 53q13 -4 37 -4t37 14.5t13 41.5v562h60v-562q0 -53 -27.5 -81.5t-79.5 -28.5q-16 0 -31 5zM94 546q-12 11 -12 33t12 33t34 11q45 0 45 -44t-45 -44q-22 0 -34 11z" unicode="j" glyph-name="j" horiz-adv-x="246"/>
<glyph d="M449 0h-76l-218 245h-6v-245h-59v730h59v-455h6l202 197h75l-217 -212z" unicode="k" glyph-name="k" horiz-adv-x="460"/>
<glyph d="M90 730h59v-730h-59v730z" unicode="l" glyph-name="l" horiz-adv-x="239"/>
<glyph d="M721.5 446q37.5 -36 37.5 -98v-348h-59v336q0 42 -26.5 66.5t-68.5 24.5q-38 0 -77.5 -20.5t-73.5 -57.5v-1v-348h-59v336q0 42 -26.5 66.5t-68.5 24.5q-39 0 -78 -20.5t-73 -57.5v-349h-59v472h47l7 -69q34 38 79 58.5t93 20.5t82 -22t48 -61q32 38 79 60.5t96 22.5 q63 0 100.5 -36z" unicode="m" glyph-name="m" horiz-adv-x="840"/>
<glyph d="M416.5 446q37.5 -36 37.5 -98v-348h-59v336q0 42 -26.5 66.5t-68.5 24.5q-39 0 -78 -20.5t-73 -57.5v-349h-59v472h47l7 -69q34 38 79 58.5t93 20.5q63 0 100.5 -36z" unicode="n" glyph-name="n" horiz-adv-x="535"/>
<glyph d="M107.5 53q-55.5 64 -55.5 183q0 118 55.5 182t158.5 64q102 0 157.5 -64t55.5 -182t-55.5 -182.5t-157.5 -64.5q-103 0 -158.5 64zM379.5 93q39.5 50 39.5 143t-39.5 142.5t-113.5 49.5q-73 0 -112.5 -49.5t-39.5 -142.5t39.5 -143t112.5 -50q74 0 113.5 50z" unicode="o" glyph-name="o" horiz-adv-x="532"/>
<glyph d="M403.5 451.5q44.5 -30.5 68.5 -86.5t24 -131q0 -115 -52.5 -180t-144.5 -65q-46 0 -85 17t-65 48v-254h-59v672h47l7 -59q33 36 73 52.5t83 16.5q59 0 103.5 -30.5zM395.5 93q38.5 50 38.5 142q0 91 -38 142t-105 51q-42 0 -79.5 -19.5t-62.5 -55.5v-235q24 -36 61 -55.5 t79 -19.5q68 0 106.5 50z" unicode="p" glyph-name="p" horiz-adv-x="549"/>
<glyph d="M458 472v-672h-59v255q-25 -32 -64 -49t-87 -17q-94 0 -145 64.5t-51 178.5q0 116 52 183t144 67q94 0 156 -69l7 59h47zM338.5 62.5q36.5 19.5 60.5 55.5v235q-25 36 -62.5 55.5t-79.5 19.5q-67 0 -105 -51t-38 -140q0 -95 39.5 -144.5t107.5 -49.5q41 0 77.5 19.5z" unicode="q" glyph-name="q" horiz-adv-x="549"/>
<glyph d="M301 428q-83 -6 -152 -75v-353h-59v472h47l7 -68q33 36 76 57t77 21z" unicode="r" glyph-name="r" horiz-adv-x="330"/>
<glyph d="M122.5 1.5q-47.5 12.5 -74.5 30.5l7 55q28 -19 77 -31.5t90 -12.5q52 0 81 20t29 60q0 35 -33 56t-91 39q-71 20 -111 48.5t-40 86.5q0 62 45.5 95.5t115.5 33.5q36 0 77 -8.5t67 -22.5l-6 -52q-29 13 -68 22.5t-69 9.5q-45 0 -74 -20.5t-29 -54.5q0 -24 15.5 -39.5 t37 -24.5t63.5 -21q75 -21 117 -51t42 -90q0 -67 -46.5 -104t-128.5 -37q-46 0 -93.5 12.5z" unicode="s" glyph-name="s" horiz-adv-x="431"/>
<glyph d="M282 16q-37 -17 -73 -17q-51 0 -78.5 28t-27.5 80v312h-75l17 53h58v173h59v-173h97v-53h-97v-311q0 -27 13 -42t37 -15q28 0 51 8z" unicode="t" glyph-name="t" horiz-adv-x="306"/>
<glyph d="M449 472v-472h-47l-7 69q-34 -38 -79 -59t-93 -21q-63 0 -100.5 36t-37.5 99v348h59v-336q0 -42 26.5 -67t69.5 -25q38 0 77.5 21t72.5 58v349h59z" unicode="u" glyph-name="u" horiz-adv-x="540"/>
<glyph d="M444 472l-174 -472h-73l-178 472h65l151 -415l147 415h62z" unicode="v" glyph-name="v" horiz-adv-x="463"/>
<glyph d="M690 472l-146 -472h-76l-113 383l-116 -383h-77l-143 472h65l119 -415l126 415h58l121 -415l121 415h61z" unicode="w" glyph-name="w" horiz-adv-x="709"/>
<glyph d="M369 0l-135 200l-136 -200h-66l165 240l-160 232h70l128 -190l132 190h63l-161 -226l170 -246h-70z" unicode="x" glyph-name="x" horiz-adv-x="472"/>
<glyph d="M444 472l-185 -502q-21 -59 -38 -93t-45 -55.5t-71 -21.5q-16 0 -34 5l-9 53q16 -4 34 -4q24 0 39.5 9.5t30.5 36t35 80.5l-182 492h66l150 -415l147 415h62z" unicode="y" glyph-name="y" horiz-adv-x="463"/>
<glyph d="M48 57l284 362h-266v53h338v-50l-287 -369h288v-53h-357v57z" unicode="z" glyph-name="z" horiz-adv-x="453"/>
<glyph d="M169.5 -72q-37.5 34 -37.5 99q0 19 6 63q6 48 6 72q0 52 -18.5 80t-53.5 28h-30v44h30q35 0 53.5 28t18.5 80q0 23 -6 69q-6 44 -6 64q0 66 37.5 100.5t106.5 34.5h93v-45h-84q-45 0 -69 -23t-24 -68q0 -11 2 -30.5t3 -30.5q6 -50 6 -71q0 -49 -21 -82t-62 -47v-2 q40 -14 61.5 -48t21.5 -82q0 -22 -6 -70q-1 -10 -3 -30.5t-2 -31.5q0 -44 23.5 -66.5t68.5 -22.5h85v-46h-93q-69 0 -106.5 34z" unicode="{" glyph-name="braceleft" horiz-adv-x="422"/>
<glyph d="M130 770h56v-959h-56v959z" unicode="|" glyph-name="bar" horiz-adv-x="315"/>
<glyph d="M52 -60h85q45 0 69 22.5t24 66.5q0 11 -2 31.5t-3 30.5q-6 48 -6 70q0 48 21.5 82t61.5 48v2q-41 14 -62 47t-21 82q0 21 6 71q1 11 3 30.5t2 30.5q0 45 -24 68t-69 23h-85v45h93q69 0 106.5 -34.5t37.5 -100.5q0 -15 -2 -35t-3 -29q-6 -46 -6 -69q0 -52 19 -80t53 -28 h29v-44h-29q-34 0 -53 -28t-19 -80q0 -24 6 -72q1 -9 3 -29t2 -34q0 -65 -37.5 -99t-106.5 -34h-93v46z" unicode="}" glyph-name="braceright" horiz-adv-x="422"/>
<glyph d="M286 246q-20 7 -45 19q-44 22 -71 22q-21 0 -41 -9.5t-43 -31.5l-27 28q26 31 56 47.5t56 16.5q21 0 39 -6.5t50 -20.5q26 -12 40 -17t28 -5q22 0 41.5 9t41.5 29l27 -28q-24 -29 -54.5 -44.5t-56.5 -15.5q-21 0 -41 7z" unicode="~" glyph-name="asciitilde" horiz-adv-x="498"/>
<glyph d="M99 413q-13 13 -13 38t13 38t38 13t38 -13t13 -38t-13 -38t-38 -13t-38 13zM116 307h42l17 -507h-76z" unicode="¡" glyph-name="exclamdown" horiz-adv-x="274"/>
<glyph d="M292 100l5 -100h-59l6 100q-91 6 -141.5 70t-50.5 175q0 112 50 176t142 70l-6 99h59l-5 -99q39 -4 70.5 -18t52.5 -37l-11 -60q-25 30 -60.5 46t-76.5 16q-74 0 -114 -50.5t-40 -142.5t40 -142t112 -50q44 0 82 18.5t67 52.5l12 -57q-50 -58 -134 -67z" unicode="¢" glyph-name="cent" horiz-adv-x="469"/>
<glyph d="M190 178q-19 -74 -51 -127h351v-51h-423v43q78 126 82 278h-82v51h81l-3 47q-4 50 -4 72q0 101 63 155.5t180 54.5q55 0 109 -17l-8 -55q-57 15 -99 15q-88 0 -135 -40.5t-47 -115.5q0 -17 1 -34.5t2 -33.5l3 -48h235l-8 -51h-226q-2 -69 -21 -143z" unicode="£" glyph-name="sterling"/>
<glyph d="M371 231l75 -67l-40 -40l-67 75q-38 -26 -97 -26t-97 26l-67 -75l-40 40l75 67q-26 38 -26 97t26 97l-75 67l40 39l67 -74q39 25 97 25t97 -25l67 74l40 -39l-75 -67q26 -38 26 -97t-26 -97zM320.5 247.5q27.5 28.5 27.5 80.5q0 53 -27.5 81t-79.5 28q-50 0 -77.5 -28.5 t-27.5 -80.5q0 -53 27.5 -81t79.5 -28q50 0 77.5 28.5z" unicode="¤" glyph-name="currency" horiz-adv-x="485"/>
<glyph d="M338 295h164v-46h-167v-91h167v-46h-167v-112h-65v112h-169v46h169v91h-169v46h166l-243 395h75l201 -335h5l203 335h72z" unicode="¥" glyph-name="yen" horiz-adv-x="604"/>
<glyph d="M130 770h56v-375h-56v375zM130 179h56v-368h-56v368z" unicode="¦" glyph-name="brokenbar" horiz-adv-x="316"/>
<glyph d="M178 -3.5q-40 7.5 -89 23.5l16 57q32 -15 74 -23.5t83 -8.5q62 0 103.5 20t41.5 59q0 26 -19.5 42t-48.5 24t-80 17q-66 12 -105.5 24.5t-68 41t-28.5 78.5q0 41 19 70t56 60q-20 17 -29.5 36t-9.5 45q0 64 53 101.5t148 37.5q76 0 150 -22l-13 -56q-59 24 -130 24 q-62 0 -103.5 -20t-41.5 -60q0 -27 20 -42.5t49.5 -24t80.5 -17.5q64 -12 104 -25t68 -40.5t28 -75.5q0 -36 -17.5 -68t-56.5 -65q19 -14 29 -35t10 -45q0 -69 -57 -104.5t-155 -35.5q-41 0 -81 7.5zM429 280.5q17 27.5 17 57.5q0 29 -23 46t-55.5 25.5t-86.5 17.5 q-76 14 -104 25q-32 -26 -45.5 -47.5t-13.5 -50.5q0 -36 30.5 -53.5t88.5 -29.5l43 -8q74 -12 107 -25q25 15 42 42.5z" unicode="§" glyph-name="section" horiz-adv-x="563"/>
<glyph d="M103 546q-12 11 -12 33t12 33t34 11q45 0 45 -44t-45 -44q-22 0 -34 11zM277 546q-12 11 -12 33t12 33t34 11q45 0 45 -44t-45 -44q-22 0 -34 11z" unicode="¨" glyph-name="dieresis" horiz-adv-x="600"/>
<glyph d="M147.5 82q-90.5 93 -90.5 263q0 171 90 263.5t256 92.5t256.5 -93t90.5 -263t-89.5 -263t-255.5 -93q-167 0 -257.5 93zM632.5 106q79.5 84 79.5 239t-80.5 239t-229.5 84q-148 0 -228 -84t-80 -239t81 -239t230 -84q148 0 227.5 84zM280.5 197.5q-46.5 52.5 -46.5 150.5 t47 151t133 53q61 0 118 -35l-9 -50q-52 40 -109 40q-62 0 -95 -41.5t-33 -117.5q0 -77 33.5 -118t95.5 -41q27 0 57.5 11.5t59.5 33.5l6 -47q-28 -20 -61 -31t-65 -11q-85 0 -131.5 52.5z" unicode="©" glyph-name="copyright" horiz-adv-x="810"/>
<glyph d="M98.5 396.5q-24.5 22.5 -24.5 63.5q0 56 50.5 85.5t146.5 32.5v24q0 29 -17.5 44.5t-49.5 15.5q-55 0 -102 -26l-13 31q53 34 120 34q52 0 80 -25t28 -72v-223h-36l-7 38q-26 -21 -53.5 -33t-52.5 -12q-45 0 -69.5 22.5zM271 454v90q-73 -1 -112.5 -21.5t-39.5 -59.5 q0 -24 15 -37t42 -13q49 0 95 41zM77 296h241v-40h-241v40z" unicode="ª" glyph-name="ordfeminine" horiz-adv-x="404"/>
<glyph d="M42 236l164 236h50l-141 -236l141 -236h-50zM247 236l162 236h52l-141 -236l141 -236h-52z" unicode="«" glyph-name="guillemotleft" horiz-adv-x="514"/>
<glyph d="M465 320h-406v50h451v-234h-45v184z" unicode="¬" glyph-name="logicalnot"/>
<glyph d="M62 327h245v-57h-245v57z" unicode="­" glyph-name="uni00AD" horiz-adv-x="369"/>
<glyph d="M117 295q-59 61 -59 173t59.5 172.5t168.5 60.5t168 -60.5t59 -172.5q0 -113 -59 -173.5t-168 -60.5q-110 0 -169 61zM432 316.5q51 53.5 51 151.5t-50.5 150.5t-145.5 52.5t-146 -52.5t-51 -150.5t51 -151.5t146 -53.5q94 0 145 53.5zM282 451h-31v-104h-36v257h68 q43 0 66.5 -19.5t23.5 -55.5q0 -26 -14.5 -44.5t-41.5 -26.5l77 -111h-41zM279 480q28 0 43 12.5t15 34.5q0 23 -14.5 35t-42.5 12h-30v-94h29z" unicode="®" glyph-name="registered" horiz-adv-x="572"/>
<glyph d="M100 598h243v-50h-243v50z" unicode="¯" glyph-name="macron" horiz-adv-x="600"/>
<glyph d="M105.5 434.5q-42.5 42.5 -42.5 112.5q0 69 42.5 111.5t112.5 42.5t112.5 -42.5t42.5 -111.5q0 -70 -42.5 -112.5t-112.5 -42.5t-112.5 42.5zM296.5 466q29.5 31 29.5 81q0 49 -30 79.5t-79 30.5q-48 0 -77.5 -30.5t-29.5 -79.5q0 -50 30 -81t79 -31q48 0 77.5 31z" unicode="°" glyph-name="degree" horiz-adv-x="436"/>
<glyph d="M510 342v-50h-198v-166h-53v166h-200v50h200v159h53v-159h198zM59 51h451v-51h-451v51z" unicode="±" glyph-name="plusminus"/>
<glyph d="M62 378q73 61 119.5 122.5t46.5 104.5q0 25 -16 38.5t-44 13.5q-43 0 -92 -37l-9 43q24 19 52.5 28.5t55.5 9.5q51 0 78 -24t27 -68q0 -50 -39 -108t-107 -117h158v-43h-220z" unicode="²" glyph-name="uni00B2" horiz-adv-x="407"/>
<glyph d="M47 356l8 46q42 -27 91 -27q39 0 60 16t21 46q0 31 -25 48.5t-69 17.5h-19l-4 39h25q40 0 62 16.5t22 45.5q0 25 -16.5 39t-47.5 14q-50 0 -95 -31l-6 43q47 32 108 32q53 0 81.5 -23.5t28.5 -67.5q0 -30 -17 -52.5t-49 -33.5q35 -10 54 -33.5t19 -57.5q0 -50 -33 -76.5 t-94 -26.5q-55 0 -105 26z" unicode="³" glyph-name="uni00B3" horiz-adv-x="389"/>
<glyph d="M201 672l66 -21l-119 -130h-48z" unicode="´" glyph-name="acute" horiz-adv-x="600"/>
<glyph d="M96 472h59v-336q0 -45 26.5 -68.5t68.5 -23.5q40 0 81.5 21t69.5 58v349h59v-472h-47l-6 69q-31 -37 -77 -58.5t-92 -21.5q-66 0 -96 46l10 -235h-56v672z" unicode="µ" glyph-name="uni00B5" horiz-adv-x="552"/>
<glyph d="M229 333q-91 8 -138 54t-47 127q0 84 54 129.5t154 45.5h165v-689h-49v649h-90v-649h-49v333z" unicode="¶" glyph-name="paragraph" horiz-adv-x="523"/>
<glyph d="M76 245q-13 13 -13 38t13 38t38 13t38 -13t13 -38t-13 -38t-38 -13t-38 13z" unicode="·" glyph-name="periodcentered" horiz-adv-x="228"/>
<glyph d="M86 -189l19 38q20 -8 39 -8q23 0 37.5 10.5t14.5 27.5q0 25 -32 25q-15 0 -29 -5l-19 18l31 92l50 -9l-31 -65q12 4 28 4q55 0 55 -51q0 -40 -29 -64t-74 -24q-25 0 -60 11z" unicode="¸" glyph-name="cedilla" horiz-adv-x="600"/>
<glyph d="M114 645l-75 -33l-6 43l86 41h46v-355h-51v304z" unicode="¹" glyph-name="uni00B9" horiz-adv-x="327"/>
<glyph d="M97 404.5q-37 44.5 -37 126.5t36.5 126t104.5 44t104.5 -44t36.5 -126t-36.5 -126.5t-104.5 -44.5q-67 0 -104 44.5zM271 434.5q24 33.5 24 96.5q0 62 -24 95.5t-70 33.5q-45 0 -69 -33.5t-24 -95.5t24 -96t69 -34q46 0 70 33.5zM70 296h263v-40h-263v40z" unicode="º" glyph-name="ordmasculine" horiz-adv-x="403"/>
<glyph d="M194 236l-142 236h52l162 -236l-162 -236h-52zM400 236l-142 236h50l164 -236l-164 -236h-50z" unicode="»" glyph-name="guillemotright" horiz-adv-x="514"/>
<glyph d="M156 645l-75 -33l-6 43l86 41h46v-356h-51v305zM542 690h50l-398 -690h-50zM588 75h-179v35l167 245h63v-242h53v-38h-53v-75h-51v75zM588 113v188l-129 -188h129z" unicode="¼" glyph-name="onequarter" horiz-adv-x="756"/>
<glyph d="M156 645l-75 -33l-6 43l86 41h46v-356h-51v305zM541 690h50l-398 -690h-50zM487 37q73 61 119.5 122.5t46.5 104.5q0 25 -16 38.5t-44 13.5q-43 0 -92 -37l-9 43q24 19 52.5 28.5t55.5 9.5q51 0 78 -24t27 -68q0 -50 -39 -108t-107 -117h158v-43h-220z" unicode="½" glyph-name="onehalf" horiz-adv-x="812"/>
<glyph d="M79 356l8 46q42 -27 91 -27q39 0 60 16t21 46q0 31 -25 48.5t-69 17.5h-19l-4 39h25q40 0 62 16.5t22 45.5q0 25 -16.5 39t-47.5 14q-50 0 -95 -31l-6 43q47 32 108 32q53 0 81.5 -24t28.5 -68q0 -29 -17 -51.5t-49 -33.5q35 -10 54 -33.5t19 -57.5q0 -50 -33 -76.5 t-94 -26.5q-55 0 -105 26zM584 690h50l-398 -690h-50zM629 75h-179v35l167 245h63v-242h53v-38h-53v-75h-51v75zM629 113v188l-129 -188h129z" unicode="¾" glyph-name="threequarters" horiz-adv-x="797"/>
<glyph d="M291 489q13 -13 13 -38t-13 -38t-38 -13t-38 13t-13 38t13 38t38 13t38 -13zM279 144q-87 -43 -128.5 -84.5t-41.5 -98.5q0 -54 34.5 -83.5t98.5 -29.5q47 0 95 16t84 46l9 -57q-85 -62 -194 -62q-87 0 -139 41.5t-52 124.5q0 74 44.5 121.5t141.5 94.5l5 134h38z" unicode="¿" glyph-name="questiondown" horiz-adv-x="452"/>
<glyph d="M488 206h-319l-77 -206h-68l260 690h90l259 -690h-69zM468 261l-136 369h-6l-137 -369h279zM215 868l69 22l100 -151h-49z" unicode="À" glyph-name="Agrave" horiz-adv-x="657"/>
<glyph d="M488 206h-319l-77 -206h-68l260 690h90l259 -690h-69zM468 261l-136 369h-6l-137 -369h279zM372 890l66 -21l-119 -130h-48z" unicode="Á" glyph-name="Aacute" horiz-adv-x="657"/>
<glyph d="M488 206h-319l-77 -206h-68l260 690h90l259 -690h-69zM468 261l-136 369h-6l-137 -369h279zM301 890h52l104 -151h-52l-78 100l-78 -100h-52z" unicode="Â" glyph-name="Acircumflex" horiz-adv-x="657"/>
<glyph d="M488 206h-319l-77 -206h-68l260 690h90l259 -690h-69zM468 261l-136 369h-6l-137 -369h279zM184 740q0 45 20 73.5t52 28.5q16 0 32 -6t46 -20q44 -23 63 -23q14 0 25 14.5t15 37.5l34 -1q0 -44 -20.5 -73t-52.5 -29q-25 0 -75 26q-23 11 -37.5 16.5t-26.5 5.5 q-15 0 -25.5 -14t-14.5 -38z" unicode="Ã" glyph-name="Atilde" horiz-adv-x="657"/>
<glyph d="M488 206h-319l-77 -206h-68l260 690h90l259 -690h-69zM468 261l-136 369h-6l-137 -369h279zM207 764q-12 11 -12 33t12 33t34 11q45 0 45 -44t-45 -44q-22 0 -34 11zM381 764q-12 11 -12 33t12 33t34 11q45 0 45 -44t-45 -44q-22 0 -34 11z" unicode="Ä" glyph-name="Adieresis" horiz-adv-x="657"/>
<glyph d="M488 206h-319l-77 -206h-68l260 690h90l259 -690h-69zM468 261l-136 369h-6l-137 -369h279zM258.5 752.5q-25.5 24.5 -25.5 67.5q0 41 25.5 65t69.5 24t69 -24t25 -65q0 -43 -25 -67.5t-69 -24.5t-69.5 24.5zM366 782q13 13 13 38q0 23 -13 35t-38 12q-24 0 -37 -12 t-13 -35q0 -25 13 -38t37 -13q25 0 38 13z" unicode="Å" glyph-name="Aring" horiz-adv-x="657"/>
<glyph d="M852 58v-58h-389v206h-249l-118 -206h-72l399 690h53h367v-57h-314v-255h273v-58h-273v-262h323zM463 261v369h-5l-212 -369h217z" unicode="Æ" glyph-name="AE" horiz-adv-x="939"/>
<glyph d="M462 -112q0 -40 -29 -64t-74 -24q-25 0 -60 11l19 38q20 -8 39 -8q23 0 37.5 10.5t14.5 27.5q0 25 -32 25q-15 0 -29 -5l-19 18l25 73q-133 9 -205.5 101.5t-72.5 254.5q0 171 80 263t227 92q63 0 116.5 -17t91.5 -47l-28 -47q-83 50 -179 50q-115 0 -177.5 -77 t-62.5 -219t62.5 -218t182.5 -76q103 0 194 61l26 -48q-41 -32 -93 -51t-111 -22l-26 -55q12 4 28 4q55 0 55 -51z" unicode="Ç" glyph-name="Ccedilla" horiz-adv-x="657"/>
<glyph d="M513 58v-58h-389v690h380v-57h-314v-255h274v-58h-274v-262h323zM206 868l69 22l100 -151h-49z" unicode="È" glyph-name="Egrave" horiz-adv-x="601"/>
<glyph d="M513 58v-58h-389v690h380v-57h-314v-255h274v-58h-274v-262h323zM363 890l66 -21l-119 -130h-48z" unicode="É" glyph-name="Eacute" horiz-adv-x="601"/>
<glyph d="M513 58v-58h-389v690h380v-57h-314v-255h274v-58h-274v-262h323zM292 890h52l104 -151h-52l-78 100l-78 -100h-52z" unicode="Ê" glyph-name="Ecircumflex" horiz-adv-x="601"/>
<glyph d="M513 58v-58h-389v690h380v-57h-314v-255h274v-58h-274v-262h323zM198 764q-12 11 -12 33t12 33t34 11q45 0 45 -44t-45 -44q-22 0 -34 11zM372 764q-12 11 -12 33t12 33t34 11q45 0 45 -44t-45 -44q-22 0 -34 11z" unicode="Ë" glyph-name="Edieresis" horiz-adv-x="601"/>
<glyph d="M124 690h66v-690h-66v690zM45 868l69 22l100 -151h-49z" unicode="Ì" glyph-name="Igrave" horiz-adv-x="315"/>
<glyph d="M124 690h66v-690h-66v690zM202 890l66 -21l-119 -130h-48z" unicode="Í" glyph-name="Iacute" horiz-adv-x="315"/>
<glyph d="M124 690h66v-690h-66v690zM131 890h52l104 -151h-52l-78 100l-78 -100h-52z" unicode="Î" glyph-name="Icircumflex" horiz-adv-x="315"/>
<glyph d="M124 690h66v-690h-66v690zM37 764q-12 11 -12 33t12 33t34 11q45 0 45 -44t-45 -44q-22 0 -34 11zM211 764q-12 11 -12 33t12 33t34 11q45 0 45 -44t-45 -44q-22 0 -34 11z" unicode="Ï" glyph-name="Idieresis" horiz-adv-x="315"/>
<glyph d="M587.5 600.5q84.5 -89.5 84.5 -254.5q0 -166 -84.5 -256t-240.5 -90h-223v327h-105v53h105v310h223q156 0 240.5 -89.5zM536.5 133q67.5 75 67.5 213q0 137 -67.5 212t-191.5 75h-155v-253h181v-53h-181v-269h155q124 0 191.5 75z" unicode="Ð" glyph-name="Eth" horiz-adv-x="749"/>
<glyph d="M124 690h84l365 -594h5v594h66v-690h-82l-366 596h-6v-596h-66v690zM241 740q0 45 20 73.5t52 28.5q16 0 32 -6t46 -20q44 -23 63 -23q14 0 25 14.5t15 37.5l34 -1q0 -44 -20.5 -73t-52.5 -29q-25 0 -75 26q-23 11 -37.5 16.5t-26.5 5.5q-15 0 -25.5 -14t-14.5 -38z" unicode="Ñ" glyph-name="Ntilde" horiz-adv-x="769"/>
<glyph d="M157 82q-81 93 -81 265q0 170 81 262t230 92q156 0 240.5 -92t84.5 -262q0 -172 -84.5 -265t-240.5 -93q-149 0 -230 93zM578 127.5q67 77.5 67 219.5q0 141 -67 217t-190 76q-117 0 -180 -76t-63 -217q0 -142 63 -219.5t180 -77.5q123 0 190 77.5zM282 868l69 22 l100 -151h-49z" unicode="Ò" glyph-name="Ograve" horiz-adv-x="789"/>
<glyph d="M157 82q-81 93 -81 265q0 170 81 262t230 92q156 0 240.5 -92t84.5 -262q0 -172 -84.5 -265t-240.5 -93q-149 0 -230 93zM578 127.5q67 77.5 67 219.5q0 141 -67 217t-190 76q-117 0 -180 -76t-63 -217q0 -142 63 -219.5t180 -77.5q123 0 190 77.5zM439 890l66 -21 l-119 -130h-48z" unicode="Ó" glyph-name="Oacute" horiz-adv-x="789"/>
<glyph d="M157 82q-81 93 -81 265q0 170 81 262t230 92q156 0 240.5 -92t84.5 -262q0 -172 -84.5 -265t-240.5 -93q-149 0 -230 93zM578 127.5q67 77.5 67 219.5q0 141 -67 217t-190 76q-117 0 -180 -76t-63 -217q0 -142 63 -219.5t180 -77.5q123 0 190 77.5zM368 890h52l104 -151 h-52l-78 100l-78 -100h-52z" unicode="Ô" glyph-name="Ocircumflex" horiz-adv-x="789"/>
<glyph d="M157 82q-81 93 -81 265q0 170 81 262t230 92q156 0 240.5 -92t84.5 -262q0 -172 -84.5 -265t-240.5 -93q-149 0 -230 93zM578 127.5q67 77.5 67 219.5q0 141 -67 217t-190 76q-117 0 -180 -76t-63 -217q0 -142 63 -219.5t180 -77.5q123 0 190 77.5zM251 740q0 45 20 73.5 t52 28.5q16 0 32 -6t46 -20q44 -23 63 -23q14 0 25 14.5t15 37.5l34 -1q0 -44 -20.5 -73t-52.5 -29q-25 0 -75 26q-23 11 -37.5 16.5t-26.5 5.5q-15 0 -25.5 -14t-14.5 -38z" unicode="Õ" glyph-name="Otilde" horiz-adv-x="789"/>
<glyph d="M157 82q-81 93 -81 265q0 170 81 262t230 92q156 0 240.5 -92t84.5 -262q0 -172 -84.5 -265t-240.5 -93q-149 0 -230 93zM578 127.5q67 77.5 67 219.5q0 141 -67 217t-190 76q-117 0 -180 -76t-63 -217q0 -142 63 -219.5t180 -77.5q123 0 190 77.5zM274 764 q-12 11 -12 33t12 33t34 11q45 0 45 -44t-45 -44q-22 0 -34 11zM448 764q-12 11 -12 33t12 33t34 11q45 0 45 -44t-45 -44q-22 0 -34 11z" unicode="Ö" glyph-name="Odieresis" horiz-adv-x="789"/>
<glyph d="M283 252l-166 -167l-34 34l167 166l-168 167l36 36l167 -168l166 167l34 -34l-167 -166l168 -167l-36 -36z" unicode="×" glyph-name="multiply" horiz-adv-x="568"/>
<glyph d="M639 595q73 -91 73 -248q0 -172 -84.5 -265t-240.5 -93q-118 0 -196 60l-40 -49h-70l72 87q-77 92 -77 260q0 170 81 262t230 92q132 0 214 -67l46 56h70zM197 142l362 441q-65 57 -171 57q-117 0 -180 -76t-63 -217q0 -129 52 -205zM595 542l-361 -441q60 -51 154 -51 q123 0 190 77.5t67 219.5q0 121 -50 195z" unicode="Ø" glyph-name="Oslash" horiz-adv-x="789"/>
<glyph d="M181.5 60q-66.5 71 -66.5 202v428h66v-429q0 -101 49.5 -156t140.5 -55t140 55t49 156v429h66v-428q0 -131 -66.5 -202t-188.5 -71q-123 0 -189.5 71zM258 868l69 22l100 -151h-49z" unicode="Ù" glyph-name="Ugrave" horiz-adv-x="741"/>
<glyph d="M181.5 60q-66.5 71 -66.5 202v428h66v-429q0 -101 49.5 -156t140.5 -55t140 55t49 156v429h66v-428q0 -131 -66.5 -202t-188.5 -71q-123 0 -189.5 71zM415 890l66 -21l-119 -130h-48z" unicode="Ú" glyph-name="Uacute" horiz-adv-x="741"/>
<glyph d="M181.5 60q-66.5 71 -66.5 202v428h66v-429q0 -101 49.5 -156t140.5 -55t140 55t49 156v429h66v-428q0 -131 -66.5 -202t-188.5 -71q-123 0 -189.5 71zM344 890h52l104 -151h-52l-78 100l-78 -100h-52z" unicode="Û" glyph-name="Ucircumflex" horiz-adv-x="741"/>
<glyph d="M181.5 60q-66.5 71 -66.5 202v428h66v-429q0 -101 49.5 -156t140.5 -55t140 55t49 156v429h66v-428q0 -131 -66.5 -202t-188.5 -71q-123 0 -189.5 71zM250 764q-12 11 -12 33t12 33t34 11q45 0 45 -44t-45 -44q-22 0 -34 11zM424 764q-12 11 -12 33t12 33t34 11 q45 0 45 -44t-45 -44q-22 0 -34 11z" unicode="Ü" glyph-name="Udieresis" horiz-adv-x="741"/>
<glyph d="M270 290l-246 400h76l201 -335h5l203 335h72l-245 -400v-290h-66v290zM347 890l66 -21l-119 -130h-48z" unicode="Ý" glyph-name="Yacute" horiz-adv-x="605"/>
<glyph d="M500 512.5q57 -55.5 57 -152.5q0 -98 -57 -154t-157 -56h-153v-150h-66v690h66v-122h153q100 0 157 -55.5zM450 248q39 41 39 111t-39 111t-107 41h-153v-304h153q68 0 107 41z" unicode="Þ" glyph-name="Thorn" horiz-adv-x="615"/>
<glyph d="M268 14v52q53 -24 97 -24q55 0 84.5 32.5t29.5 91.5q0 61 -48 104.5t-136 62.5l-7 40q45 43 69 86.5t24 80.5q0 50 -26 77.5t-75 27.5q-47 0 -72 -29t-25 -83v-533h-59v535q0 80 40.5 123t116.5 43q77 0 119 -40t42 -113q0 -42 -23 -87.5t-66 -89.5q90 -24 139 -77.5 t49 -128.5q0 -84 -45.5 -130t-129.5 -46q-51 0 -98 25z" unicode="ß" glyph-name="germandbls" horiz-adv-x="594"/>
<glyph d="M368 446q41 -36 41 -96v-350h-48l-7 59q-35 -32 -81 -51t-88 -19q-60 0 -96.5 36.5t-36.5 94.5q0 84 77 129.5t220 45.5v-47q-113 0 -174 -32t-61 -91q0 -37 22.5 -60.5t62.5 -23.5q37 0 78 19t73 51v237q0 38 -25 59.5t-75 21.5q-74 0 -157 -43l-17 45q42 25 91.5 38 t91.5 13q68 0 109 -36zM132 650l69 22l100 -151h-49z" unicode="à" glyph-name="agrave" horiz-adv-x="489"/>
<glyph d="M368 446q41 -36 41 -96v-350h-48l-7 59q-35 -32 -81 -51t-88 -19q-60 0 -96.5 36.5t-36.5 94.5q0 84 77 129.5t220 45.5v-47q-113 0 -174 -32t-61 -91q0 -37 22.5 -60.5t62.5 -23.5q37 0 78 19t73 51v237q0 38 -25 59.5t-75 21.5q-74 0 -157 -43l-17 45q42 25 91.5 38 t91.5 13q68 0 109 -36zM289 672l66 -21l-119 -130h-48z" unicode="á" glyph-name="aacute" horiz-adv-x="489"/>
<glyph d="M368 446q41 -36 41 -96v-350h-48l-7 59q-35 -32 -81 -51t-88 -19q-60 0 -96.5 36.5t-36.5 94.5q0 84 77 129.5t220 45.5v-47q-113 0 -174 -32t-61 -91q0 -37 22.5 -60.5t62.5 -23.5q37 0 78 19t73 51v237q0 38 -25 59.5t-75 21.5q-74 0 -157 -43l-17 45q42 25 91.5 38 t91.5 13q68 0 109 -36zM218 672h52l104 -151h-52l-78 100l-78 -100h-52z" unicode="â" glyph-name="acircumflex" horiz-adv-x="489"/>
<glyph d="M368 446q41 -36 41 -96v-350h-48l-7 59q-35 -32 -81 -51t-88 -19q-60 0 -96.5 36.5t-36.5 94.5q0 84 77 129.5t220 45.5v-47q-113 0 -174 -32t-61 -91q0 -37 22.5 -60.5t62.5 -23.5q37 0 78 19t73 51v237q0 38 -25 59.5t-75 21.5q-74 0 -157 -43l-17 45q42 25 91.5 38 t91.5 13q68 0 109 -36zM101 522q0 45 20 73.5t52 28.5q16 0 32 -6t46 -20q44 -23 63 -23q14 0 25 14.5t15 37.5l34 -1q0 -44 -20.5 -73t-52.5 -29q-25 0 -75 26q-23 11 -37.5 16.5t-26.5 5.5q-15 0 -25.5 -14t-14.5 -38z" unicode="ã" glyph-name="atilde" horiz-adv-x="489"/>
<glyph d="M368 446q41 -36 41 -96v-350h-48l-7 59q-35 -32 -81 -51t-88 -19q-60 0 -96.5 36.5t-36.5 94.5q0 84 77 129.5t220 45.5v-47q-113 0 -174 -32t-61 -91q0 -37 22.5 -60.5t62.5 -23.5q37 0 78 19t73 51v237q0 38 -25 59.5t-75 21.5q-74 0 -157 -43l-17 45q42 25 91.5 38 t91.5 13q68 0 109 -36zM124 546q-12 11 -12 33t12 33t34 11q45 0 45 -44t-45 -44q-22 0 -34 11zM298 546q-12 11 -12 33t12 33t34 11q45 0 45 -44t-45 -44q-22 0 -34 11z" unicode="ä" glyph-name="adieresis" horiz-adv-x="489"/>
<glyph d="M368 446q41 -36 41 -96v-350h-48l-7 59q-35 -32 -81 -51t-88 -19q-60 0 -96.5 36.5t-36.5 94.5q0 84 77 129.5t220 45.5v-47q-113 0 -174 -32t-61 -91q0 -37 22.5 -60.5t62.5 -23.5q37 0 78 19t73 51v237q0 38 -25 59.5t-75 21.5q-74 0 -157 -43l-17 45q42 25 91.5 38 t91.5 13q68 0 109 -36zM175.5 534.5q-25.5 24.5 -25.5 67.5q0 41 25.5 65t69.5 24t69 -24t25 -65q0 -43 -25 -67.5t-69 -24.5t-69.5 24.5zM283 564q13 13 13 38q0 23 -13 35t-38 12q-24 0 -37 -12t-13 -35q0 -25 13 -38t37 -13q25 0 38 13z" unicode="å" glyph-name="aring" horiz-adv-x="489"/>
<glyph d="M91.5 23q-39.5 34 -39.5 97q0 84 77 129.5t220 45.5v53q0 39 -25 60t-74 21q-76 0 -157 -43l-18 45q43 25 92 38t91 13q50 0 86.5 -21t50.5 -58q55 79 161 79q183 0 183 -220q0 -14 -3 -26h-326q0 -95 40 -144t114 -49q46 0 85.5 18.5t68.5 52.5l10 -57q-63 -68 -169 -68 t-161 73q-46 -36 -92.5 -54.5t-100.5 -18.5q-74 0 -113.5 34zM677 285q0 69 -30 106t-89 37q-66 0 -101.5 -38.5t-43.5 -104.5h264zM295 56.5q37 15.5 78 47.5q-13 29 -18.5 63t-5.5 80q-113 0 -174 -31.5t-61 -90.5q0 -40 26.5 -62t76.5 -22q41 0 78 15.5z" unicode="æ" glyph-name="ae" horiz-adv-x="792"/>
<glyph d="M281 -10l-26 -55q12 4 28 4q55 0 55 -51q0 -40 -29 -64t-74 -24q-25 0 -60 11l19 38q20 -8 39 -8q23 0 37.5 10.5t14.5 27.5q0 25 -32 25q-15 0 -29 -5l-19 18l25 74q-85 11 -131.5 74t-46.5 171q0 118 55.5 182t156.5 64q48 0 87 -14.5t64 -41.5l-11 -59 q-25 30 -60.5 45.5t-76.5 15.5q-74 0 -114 -50t-40 -142q0 -93 40 -143t112 -50q44 0 82 18.5t67 52.5l12 -57q-55 -61 -145 -67z" unicode="ç" glyph-name="ccedilla" horiz-adv-x="469"/>
<glyph d="M107.5 53.5q-55.5 64.5 -55.5 181.5q0 118 55.5 182.5t152.5 64.5q182 0 182 -220v-26h-328q0 -95 40 -144t114 -49q46 0 85 18.5t69 52.5l9 -57q-30 -33 -72.5 -50.5t-95.5 -17.5q-100 0 -155.5 64.5zM381 284q0 69 -30 106.5t-89 37.5q-66 0 -101.5 -39t-43.5 -105h264 zM135 650l69 22l100 -151h-49z" unicode="è" glyph-name="egrave" horiz-adv-x="495"/>
<glyph d="M107.5 53.5q-55.5 64.5 -55.5 181.5q0 118 55.5 182.5t152.5 64.5q182 0 182 -220v-26h-328q0 -95 40 -144t114 -49q46 0 85 18.5t69 52.5l9 -57q-30 -33 -72.5 -50.5t-95.5 -17.5q-100 0 -155.5 64.5zM381 284q0 69 -30 106.5t-89 37.5q-66 0 -101.5 -39t-43.5 -105h264 zM292 672l66 -21l-119 -130h-48z" unicode="é" glyph-name="eacute" horiz-adv-x="495"/>
<glyph d="M107.5 53.5q-55.5 64.5 -55.5 181.5q0 118 55.5 182.5t152.5 64.5q182 0 182 -220v-26h-328q0 -95 40 -144t114 -49q46 0 85 18.5t69 52.5l9 -57q-30 -33 -72.5 -50.5t-95.5 -17.5q-100 0 -155.5 64.5zM381 284q0 69 -30 106.5t-89 37.5q-66 0 -101.5 -39t-43.5 -105h264 zM221 672h52l104 -151h-52l-78 100l-78 -100h-52z" unicode="ê" glyph-name="ecircumflex" horiz-adv-x="495"/>
<glyph d="M107.5 53.5q-55.5 64.5 -55.5 181.5q0 118 55.5 182.5t152.5 64.5q182 0 182 -220v-26h-328q0 -95 40 -144t114 -49q46 0 85 18.5t69 52.5l9 -57q-30 -33 -72.5 -50.5t-95.5 -17.5q-100 0 -155.5 64.5zM381 284q0 69 -30 106.5t-89 37.5q-66 0 -101.5 -39t-43.5 -105h264 zM127 546q-12 11 -12 33t12 33t34 11q45 0 45 -44t-45 -44q-22 0 -34 11zM301 546q-12 11 -12 33t12 33t34 11q45 0 45 -44t-45 -44q-22 0 -34 11z" unicode="ë" glyph-name="edieresis" horiz-adv-x="495"/>
<glyph d="M90 472h59v-472h-59v472zM7 650l69 22l100 -151h-49z" unicode="ì" glyph-name="igrave" horiz-adv-x="239"/>
<glyph d="M90 472h59v-472h-59v472zM164 672l66 -21l-119 -130h-48z" unicode="í" glyph-name="iacute" horiz-adv-x="239"/>
<glyph d="M90 472h59v-472h-59v472zM93 672h52l104 -151h-52l-78 100l-78 -100h-52z" unicode="î" glyph-name="icircumflex" horiz-adv-x="239"/>
<glyph d="M90 472h59v-472h-59v472zM-1 546q-12 11 -12 33t12 33t34 11q45 0 45 -44t-45 -44q-22 0 -34 11zM173 546q-12 11 -12 33t12 33t34 11q45 0 45 -44t-45 -44q-22 0 -34 11z" unicode="ï" glyph-name="idieresis" horiz-adv-x="239"/>
<glyph d="M430 473.5q38 -83.5 38 -185.5q0 -143 -51.5 -221t-145.5 -78q-106 0 -162.5 56.5t-56.5 161.5q0 102 52.5 157.5t149.5 55.5q30 0 68.5 -17.5t80.5 -49.5l4 2q-9 63 -39.5 116.5t-80.5 94.5l-53 -79h-51l69 104q-53 34 -115 53l13 57q79 -24 135 -61l40 61h53l-58 -86 q72 -58 110 -141.5zM372 109.5q36 65.5 36 186.5q-42 34 -80.5 52t-67.5 18q-70 0 -108 -41.5t-38 -117.5q0 -79 40.5 -121t115.5 -42q66 0 102 65.5z" unicode="ð" glyph-name="eth" horiz-adv-x="521"/>
<glyph d="M416.5 446q37.5 -36 37.5 -98v-348h-59v336q0 42 -26.5 66.5t-68.5 24.5q-39 0 -78 -20.5t-73 -57.5v-349h-59v472h47l7 -69q34 38 79 58.5t93 20.5q63 0 100.5 -36zM119 522q0 45 20 73.5t52 28.5q16 0 32 -6t46 -20q44 -23 63 -23q14 0 25 14.5t15 37.5l34 -1 q0 -44 -20.5 -73t-52.5 -29q-25 0 -75 26q-23 11 -37.5 16.5t-26.5 5.5q-15 0 -25.5 -14t-14.5 -38z" unicode="ñ" glyph-name="ntilde" horiz-adv-x="535"/>
<glyph d="M107.5 53q-55.5 64 -55.5 183q0 118 55.5 182t158.5 64q102 0 157.5 -64t55.5 -182t-55.5 -182.5t-157.5 -64.5q-103 0 -158.5 64zM379.5 93q39.5 50 39.5 143t-39.5 142.5t-113.5 49.5q-73 0 -112.5 -49.5t-39.5 -142.5t39.5 -143t112.5 -50q74 0 113.5 50zM153 650 l69 22l100 -151h-49z" unicode="ò" glyph-name="ograve" horiz-adv-x="532"/>
<glyph d="M107.5 53q-55.5 64 -55.5 183q0 118 55.5 182t158.5 64q102 0 157.5 -64t55.5 -182t-55.5 -182.5t-157.5 -64.5q-103 0 -158.5 64zM379.5 93q39.5 50 39.5 143t-39.5 142.5t-113.5 49.5q-73 0 -112.5 -49.5t-39.5 -142.5t39.5 -143t112.5 -50q74 0 113.5 50zM310 672 l66 -21l-119 -130h-48z" unicode="ó" glyph-name="oacute" horiz-adv-x="532"/>
<glyph d="M107.5 53q-55.5 64 -55.5 183q0 118 55.5 182t158.5 64q102 0 157.5 -64t55.5 -182t-55.5 -182.5t-157.5 -64.5q-103 0 -158.5 64zM379.5 93q39.5 50 39.5 143t-39.5 142.5t-113.5 49.5q-73 0 -112.5 -49.5t-39.5 -142.5t39.5 -143t112.5 -50q74 0 113.5 50zM239 672h52 l104 -151h-52l-78 100l-78 -100h-52z" unicode="ô" glyph-name="ocircumflex" horiz-adv-x="532"/>
<glyph d="M107.5 53q-55.5 64 -55.5 183q0 118 55.5 182t158.5 64q102 0 157.5 -64t55.5 -182t-55.5 -182.5t-157.5 -64.5q-103 0 -158.5 64zM379.5 93q39.5 50 39.5 143t-39.5 142.5t-113.5 49.5q-73 0 -112.5 -49.5t-39.5 -142.5t39.5 -143t112.5 -50q74 0 113.5 50zM122 522 q0 45 20 73.5t52 28.5q16 0 32 -6t46 -20q44 -23 63 -23q14 0 25 14.5t15 37.5l34 -1q0 -44 -20.5 -73t-52.5 -29q-25 0 -75 26q-23 11 -37.5 16.5t-26.5 5.5q-15 0 -25.5 -14t-14.5 -38z" unicode="õ" glyph-name="otilde" horiz-adv-x="532"/>
<glyph d="M107.5 53q-55.5 64 -55.5 183q0 118 55.5 182t158.5 64q102 0 157.5 -64t55.5 -182t-55.5 -182.5t-157.5 -64.5q-103 0 -158.5 64zM379.5 93q39.5 50 39.5 143t-39.5 142.5t-113.5 49.5q-73 0 -112.5 -49.5t-39.5 -142.5t39.5 -143t112.5 -50q74 0 113.5 50zM145 546 q-12 11 -12 33t12 33t34 11q45 0 45 -44t-45 -44q-22 0 -34 11zM319 546q-12 11 -12 33t12 33t34 11q45 0 45 -44t-45 -44q-22 0 -34 11z" unicode="ö" glyph-name="odieresis" horiz-adv-x="532"/>
<glyph d="M254.5 442q-11.5 12 -11.5 31q0 20 11.5 32t30.5 12t30.5 -12t11.5 -32t-11.5 -31.5t-30.5 -11.5t-30.5 12zM59 310h451v-50h-451v50zM254.5 66q-11.5 12 -11.5 31q0 20 11.5 32t30.5 12t30.5 -12t11.5 -32t-11.5 -31.5t-30.5 -11.5t-30.5 12z" unicode="÷" glyph-name="divide"/>
<glyph d="M430 410q49 -63 49 -174q0 -118 -55.5 -182.5t-157.5 -64.5q-82 0 -134 41l-24 -30h-56l49 62q-49 64 -49 174q0 118 55.5 182t158.5 64q80 0 132 -40l24 30h57zM140 113l222 283q-37 32 -96 32q-73 0 -112.5 -49.5t-39.5 -142.5q0 -76 26 -123zM391 361l-222 -284 q37 -34 97 -34q74 0 113.5 50t39.5 143q0 78 -28 125z" unicode="ø" glyph-name="oslash" horiz-adv-x="532"/>
<glyph d="M449 472v-472h-47l-7 69q-34 -38 -79 -59t-93 -21q-63 0 -100.5 36t-37.5 99v348h59v-336q0 -42 26.5 -67t69.5 -25q38 0 77.5 21t72.5 58v349h59zM157 650l69 22l100 -151h-49z" unicode="ù" glyph-name="ugrave" horiz-adv-x="540"/>
<glyph d="M449 472v-472h-47l-7 69q-34 -38 -79 -59t-93 -21q-63 0 -100.5 36t-37.5 99v348h59v-336q0 -42 26.5 -67t69.5 -25q38 0 77.5 21t72.5 58v349h59zM314 672l66 -21l-119 -130h-48z" unicode="ú" glyph-name="uacute" horiz-adv-x="540"/>
<glyph d="M449 472v-472h-47l-7 69q-34 -38 -79 -59t-93 -21q-63 0 -100.5 36t-37.5 99v348h59v-336q0 -42 26.5 -67t69.5 -25q38 0 77.5 21t72.5 58v349h59zM243 672h52l104 -151h-52l-78 100l-78 -100h-52z" unicode="û" glyph-name="ucircumflex" horiz-adv-x="540"/>
<glyph d="M449 472v-472h-47l-7 69q-34 -38 -79 -59t-93 -21q-63 0 -100.5 36t-37.5 99v348h59v-336q0 -42 26.5 -67t69.5 -25q38 0 77.5 21t72.5 58v349h59zM149 546q-12 11 -12 33t12 33t34 11q45 0 45 -44t-45 -44q-22 0 -34 11zM323 546q-12 11 -12 33t12 33t34 11q45 0 45 -44 t-45 -44q-22 0 -34 11z" unicode="ü" glyph-name="udieresis" horiz-adv-x="540"/>
<glyph d="M444 472l-185 -502q-21 -59 -38 -93t-45 -55.5t-71 -21.5q-16 0 -34 5l-9 53q16 -4 34 -4q24 0 39.5 9.5t30.5 36t35 80.5l-182 492h66l150 -415l147 415h62zM276 672l66 -21l-119 -130h-48z" unicode="ý" glyph-name="yacute" horiz-adv-x="463"/>
<glyph d="M403.5 451.5q44.5 -30.5 68.5 -86.5t24 -131q0 -115 -52.5 -180t-144.5 -65q-46 0 -85 17t-65 48v-254h-59v890h59v-272q61 64 151 64q59 0 103.5 -30.5zM395.5 93q38.5 50 38.5 142q0 91 -38 142t-105 51q-42 0 -79.5 -19.5t-62.5 -55.5v-235q24 -36 61 -55.5t79 -19.5 q68 0 106.5 50z" unicode="þ" glyph-name="thorn" horiz-adv-x="549"/>
<glyph d="M90 472h59v-472h-59v472z" unicode="ı" glyph-name="dotlessi" horiz-adv-x="239"/>
<glyph d="M18 -195l-9 53q13 -4 37 -4t37 14.5t13 41.5v562h60v-562q0 -53 -27.5 -81.5t-79.5 -28.5q-16 0 -31 5z" unicode="ȷ" glyph-name="uni0237" horiz-adv-x="246"/>
<glyph d="M-270 650l69 22l100 -151h-49z" unicode="̀" glyph-name="gravecomb" horiz-adv-x="0"/>
<glyph d="M-112 672l66 -21l-119 -130h-48z" unicode="́" glyph-name="acutecomb" horiz-adv-x="0"/>
<glyph d="M-257 672h52l104 -151h-52l-78 100l-78 -100h-52z" unicode="̂" glyph-name="uni0302" horiz-adv-x="0"/>
<glyph d="M-374 522q0 45 20 73.5t52 28.5q16 0 32 -6t46 -20q44 -23 63 -23q14 0 25 14.5t15 37.5l34 -1q0 -44 -20.5 -73t-52.5 -29q-25 0 -75 26q-23 11 -37.5 16.5t-26.5 5.5q-15 0 -25.5 -14t-14.5 -38z" unicode="̃" glyph-name="tildecomb" horiz-adv-x="0"/>
<glyph d="M-344 598h243v-50h-243v50z" unicode="̄" glyph-name="uni0304" horiz-adv-x="0"/>
<glyph d="M-171 546q-12 11 -12 33t12 33t34 11q45 0 45 -44t-45 -44q-22 0 -34 11z" unicode="̇" glyph-name="uni0307" horiz-adv-x="0"/>
<glyph d="M-344 546q-12 11 -12 33t12 33t34 11q45 0 45 -44t-45 -44q-22 0 -34 11zM-170 546q-12 11 -12 33t12 33t34 11q45 0 45 -44t-45 -44q-22 0 -34 11z" unicode="̈" glyph-name="uni0308" horiz-adv-x="0"/>
<glyph d="M-263.5 534.5q-25.5 24.5 -25.5 67.5q0 41 25.5 65t69.5 24t69 -24t25 -65q0 -43 -25 -67.5t-69 -24.5t-69.5 24.5zM-156 564q13 13 13 38q0 23 -13 35t-38 12q-24 0 -37 -12t-13 -35q0 -25 13 -38t37 -13q25 0 38 13z" unicode="̊" glyph-name="uni030A" horiz-adv-x="0"/>
<glyph d="M-255 -189l19 38q20 -8 39 -8q23 0 37.5 10.5t14.5 27.5q0 25 -32 25q-15 0 -29 -5l-19 18l31 92l50 -9l-31 -65q12 4 28 4q55 0 55 -51q0 -40 -29 -64t-74 -24q-25 0 -60 11z" unicode="̧" glyph-name="uni0327" horiz-adv-x="0"/>
<glyph d="M156 645l-75 -33l-6 43l86 41h46v-355h-51v304z" horiz-adv-x="327" glyph-name="one.numr"/>
<glyph d="M82 378q73 61 119.5 122.5t46.5 104.5q0 25 -16 38.5t-44 13.5q-43 0 -92 -37l-9 43q24 19 52.5 28.5t55.5 9.5q51 0 78 -24t27 -68q0 -50 -39 -108t-107 -117h158v-43h-220z" horiz-adv-x="407" glyph-name="two.numr"/>
<glyph d="M79 356l8 46q42 -27 91 -27q39 0 60 16t21 46q0 31 -25 48.5t-69 17.5h-19l-4 39h25q40 0 62 16.5t22 45.5q0 25 -16.5 39t-47.5 14q-50 0 -95 -31l-6 43q47 32 108 32q53 0 81.5 -23.5t28.5 -67.5q0 -30 -17 -52.5t-49 -33.5q35 -10 54 -33.5t19 -57.5q0 -50 -33 -76.5 t-94 -26.5q-55 0 -105 26z" horiz-adv-x="389" glyph-name="three.numr"/>
</font>
</defs>
</svg>
